Coordinates
version=1
nRows=11
nColumns=36
inDegrees=yes

Units are S.I. units (second, meters, Newtons, ...)
If the header above contains a line with 'inDegrees', this indicates whether rotational values are in degrees (yes) or radians (no).

endheader
time	pelvis_tilt	pelvis_list	pelvis_rotation	pelvis_tx	pelvis_ty	pelvis_tz	hip_flexion_r	hip_adduction_r	hip_rotation_r	knee_angle_r	knee_angle_r_beta	ankle_angle_r	subtalar_angle_r	mtp_angle_r	hip_flexion_l	hip_adduction_l	hip_rotation_l	knee_angle_l	knee_angle_l_beta	ankle_angle_l	subtalar_angle_l	mtp_angle_l	lumbar_extension	lumbar_bending	lumbar_rotation	arm_flex_r	arm_add_r	arm_rot_r	elbow_flex_r	pro_sup_r	arm_flex_l	arm_add_l	arm_rot_l	elbow_flex_l	pro_sup_l
      0.00000000	      9.98916158	     -1.47999393	     -0.08070728	      0.64507575	      1.03497709	      0.70916851	    -17.71053243	      0.54754285	      3.24290158	     30.06497716	      0.52473284	     -3.22297373	    -12.00126599	     -6.82511776	      9.58948320	     -0.76124114	     -0.01862169	     12.39672294	      0.21636363	     -0.02372449	     -5.84413210	     -6.82511776	    -25.57947329	     -0.27079588	      5.71328124	      8.65147145	    -21.21644142	      3.76939907	     45.19052699	     92.02884635	      5.84617428	    -11.96256438	     12.24591448	     18.89304003	     86.25265609
      0.01666670	      9.33725125	     -0.74184249	     -0.80127846	      0.64768910	      1.03297166	      0.70975228	    -13.57225840	     -1.07701644	      3.07298120	     37.02925634	      0.64628244	     -4.99138272	     -9.48789910	     -7.04551403	      9.91086846	      0.26275938	      0.42727455	     15.26445261	      0.26641496	     -0.01926107	     -6.40173557	     -7.04551403	    -24.57442609	     -1.77189276	      5.74826815	      8.14287040	    -21.24077386	      4.71986925	     45.06396886	    100.67433775	      5.84257767	    -12.55492426	     17.34824494	     18.72951389	     96.02529592
      0.03333330	      8.72088537	     -0.02489291	     -1.38833054	      0.64980635	      1.03621502	      0.71003301	     -9.08518067	     -2.27954210	      3.42772468	     44.17033293	      0.77091774	     -8.24459817	     -9.94549870	     -7.08114000	      9.84320953	      1.21831939	      0.57478600	     16.66713070	      0.29089631	      0.48447389	     -5.95960358	     -7.08114000	    -23.57036445	     -2.84928940	      4.77018342	      8.41687890	    -20.62801120	      7.13100948	     43.39728002	    101.84126639	      5.58629454	    -13.15296523	     20.52615808	     18.56794221	     97.96943904
      0.05000000	      8.32044007	      0.35760460	     -2.19299914	      0.65085502	      1.03881401	      0.71071748	     -4.94675570	     -2.86935153	      4.26146979	     50.50885560	      0.88154583	    -11.22397689	    -11.17961629	     -7.09137962	      9.24806533	      1.70397876	      0.25947101	     17.25635683	      0.30118024	      1.75777869	     -5.78052013	     -7.09137962	    -23.09675574	     -3.63254740	      4.38218733	      7.64208692	    -20.05573326	      7.39979127	     43.06821430	    101.90506610	      5.46884945	    -13.50059656	     21.01481856	     18.86140000	     98.22458635
      0.06666670	      7.81487305	      0.30721818	     -2.89094170	      0.65097851	      1.04010818	      0.71126247	     -1.00879901	     -2.62601761	      5.06791444	     55.56155922	      0.96973215	    -12.81684789	    -12.52103140	     -7.14462899	      8.70314175	      1.68622372	     -0.36934402	     17.63615934	      0.30780905	      3.53573226	     -5.27688761	     -7.14462899	    -22.44890873	     -3.91795520	      4.76313628	      6.45176379	    -19.53682734	      6.43082796	     42.37578065	    103.03732599	      6.29655392	    -13.75374736	     23.27111942	     18.90460141	    100.37476636
      0.08333330	      7.54384572	      0.24973299	     -3.46019121	      0.65142729	      1.03981850	      0.71105073	      2.29998281	     -2.27010988	      5.68641083	     59.32605822	      1.03543505	    -12.58672474	    -13.56903094	     -7.15384226	      7.67492066	      1.69938615	     -0.90694385	     17.62562215	      0.30762514	      4.75760028	     -5.30944192	     -7.15384226	    -22.08430389	     -4.09107415	      4.66050435	      5.65114067	    -19.10111093	      6.20980327	     41.82220360	    100.91912027	      6.75199376	    -13.91294312	     22.91141421	     19.69746767	     98.44188169
      0.10000000	      7.15686585	      0.19860407	     -3.76681399	      0.65236694	      1.03786630	      0.70918920	      5.41302950	     -1.87335490	      6.01638830	     62.01067919	      1.08229052	    -11.27949836	    -14.42327563	     -7.19833451	      6.66188018	      1.74269404	     -1.21080943	     17.42317639	      0.30409179	      5.82420704	     -5.35239020	     -7.19833451	    -21.48235745	     -4.20125233	      5.10089251	      4.20432471	    -18.74152873	      4.97456783	     41.52593966	    101.42283960	      8.21190334	    -13.98376229	     24.05343375	     19.65900152	     99.78241118
      0.11666670	      6.97279397	      0.07307534	     -3.84470284	      0.65274800	      1.03673800	      0.70600355	      8.01997211	     -1.46583293	      6.05197351	     63.66310711	      1.11113083	     -9.04507025	    -14.76920939	     -7.20645305	      5.26298466	      1.76911680	     -1.15414366	     16.86763812	      0.29439582	      6.57660177	     -5.66780403	     -7.20645305	    -21.14494403	     -4.05902438	      4.90782700	      3.32650875	    -18.41267312	      4.80698517	     40.70627422	     99.34500559	      9.04790724	    -14.07731501	     23.56023868	     20.53238157	     97.57585124
      0.13333330	      6.81086821	     -0.07772155	     -3.71957368	      0.65171072	      1.03722283	      0.70319040	     10.38307517	     -1.01852857	      5.97135227	     64.49438458	      1.12563936	     -6.98294599	    -15.40973433	     -7.20954199	      3.81924363	      1.78794195	     -0.68382674	     16.16768090	      0.28217926	      6.98817096	     -6.14826286	     -7.20954199	    -21.01880997	     -3.77068081	      4.40498374	      2.41888455	    -18.11102174	      4.69146781	     40.34275663	     96.99634721	      9.60202614	    -14.42116138	     22.89524749	     22.21749364	     95.30116804
      0.15000000	      6.44536926	     -0.22724123	     -3.63307697	      0.64995205	      1.03784450	      0.70136829	     12.85505355	     -0.65489746	      5.89578259	     64.72523775	      1.12966851	     -4.03324219	    -14.47998506	     -7.26008284	      2.69301045	      1.69058816	     -0.82948030	     15.65725984	      0.27327074	      8.13354642	     -5.34704759	     -7.26008284	    -20.23011875	     -3.57281332	      4.87404479	      1.05577524	    -17.83291744	      4.01015943	     38.99022779	     97.80480900	     11.46589869	    -14.15477583	     24.33966720	     21.30211517	     96.93140194
      0.16666670	      6.18995187	     -0.38968099	     -3.29725712	      0.64753472	      1.03782751	      0.69927168	     14.97958431	     -0.32372522	      5.68763528	     64.09189265	      1.11861455	     -1.85592689	    -14.21745895	     -7.26816230	      1.45249703	      1.65768218	     -0.41328521	     14.98978988	      0.26162119	      8.68608754	     -5.26968678	     -7.26816230	    -19.79047268	     -3.20635785	      4.49918926	      0.12671140	    -17.51445413	      3.72891306	     37.82321969	     96.69761175	     12.45652290	    -14.22649002	     23.74863099	     21.95463688	     95.82913781
